<?xml version="1.0" encoding="UTF-8"?>
<svg width="442px" height="442px" viewBox="0 0 442 442" version="1.1" xmlns="http://www.w3.org/2000/svg" xmlns:xlink="http://www.w3.org/1999/xlink">
    <!-- Generator: Sketch 46.2 (44496) - http://www.bohemiancoding.com/sketch -->
    <title>Alexa Dot</title>
    <desc>Created with Sketch.</desc>
    <defs></defs>
    <g id="Page-1" stroke="none" stroke-width="1" fill="none" fill-rule="evenodd">
        <g id="Alexa-Dot" transform="translate(1.000000, 1.000000)">
            <g id="Base">
                <circle id="LED-Ring" stroke-opacity="0.25" stroke="#000000" fill-opacity="0.25" fill="#FFFFFF" cx="220" cy="220" r="220"></circle>
                <circle stroke="#000000" fill="#222222" cx="220" cy="220" r="210"></circle>
                <circle id="Center-Hole" fill="#000000" cx="220" cy="220" r="5"></circle>
                <path d="M220,18 C221.656854,18 223,19.3431458 223,21 L223,29 C223,30.6568542 221.656854,32 220,32 C218.343146,32 217,30.6568542 217,29 L217,21 L217,21 C217,19.3431458 218.343146,18 220,18 Z M235.023299,18.5609131 C236.676117,18.6764894 237.922298,20.1100564 237.806721,21.7628747 L237.248669,29.7433871 C237.133093,31.3962053 235.699526,32.6423861 234.046708,32.5268098 C232.39389,32.4112335 231.147709,30.9776665 231.263285,29.3248482 L231.821337,21.3443358 L231.821337,21.3443358 C231.936913,19.6915176 233.37048,18.4453368 235.023299,18.5609131 Z M250.083762,20.2585859 C251.720218,20.517775 252.836713,22.0544987 252.577524,23.6909543 L251.326048,31.5924611 C251.066859,33.2289167 249.530135,34.3454118 247.89368,34.0862227 C246.257224,33.8270336 245.140729,32.2903099 245.399918,30.6538543 L246.651394,22.7523475 C246.910583,21.1158919 248.447306,19.9993968 250.083762,20.2585859 Z M264.854979,23.0559306 C266.469368,23.4286417 267.475947,25.0395048 267.103236,26.653894 L265.303628,34.4488545 C264.930917,36.0632437 263.320053,37.0698226 261.705664,36.6971115 C260.091275,36.3244004 259.084696,34.7135374 259.457407,33.0991482 L261.257016,25.3041877 C261.629727,23.6897985 263.24059,22.6832195 264.854979,23.0559306 Z M279.376483,26.946956 C280.960941,27.4313733 281.8527,29.1085278 281.368283,30.6929854 L279.029309,38.3434234 C278.544892,39.927881 276.867737,40.8196399 275.283279,40.3352226 C273.698822,39.8508053 272.807063,38.1736508 273.29148,36.5891932 L275.630454,28.9387551 C276.114871,27.3542975 277.792026,26.4625387 279.376483,26.946956 Z M293.567405,31.9099929 C295.114212,32.5037564 295.886806,34.2390313 295.293042,35.785838 L292.426099,43.2544814 C291.832335,44.8012881 290.09706,45.5738823 288.550254,44.9801189 C287.003447,44.3863554 286.230853,42.6510804 286.824616,41.1042737 L289.69156,33.6356303 C290.285323,32.0888236 292.020598,31.3162294 293.567405,31.9099929 Z M307.458985,37.9699969 C308.948156,38.696314 309.566571,40.4923217 308.840254,41.9814924 L305.333285,49.1718448 C304.606968,50.6610156 302.81096,51.2794306 301.321789,50.5531135 C299.832618,49.8267964 299.214203,48.0307887 299.940521,46.5416179 L303.44749,39.3512656 C304.173807,37.8620948 305.969815,37.2436798 307.458985,37.9699969 Z M320.75,44.9958811 C322.184878,45.8243083 322.676503,47.6590795 321.848076,49.0939573 L317.848076,56.0221606 C317.019649,57.4570384 315.184878,57.9486639 313.75,57.1202368 C312.315122,56.2918097 311.823497,54.4570384 312.651924,53.0221606 L316.651924,46.0939573 C317.480351,44.6590795 319.315122,44.167454 320.75,44.9958811 Z M333.480102,52.9932954 C334.853696,53.9197965 335.216137,55.7843924 334.289636,57.1579868 L329.816092,63.7902874 C328.889591,65.1638818 327.024995,65.5263225 325.651401,64.5998214 C324.277807,63.6733203 323.915366,61.8087244 324.841867,60.43513 L329.31541,53.8028294 C330.241911,52.429235 332.106507,52.0667942 333.480102,52.9932954 Z M345.674009,61.9937549 C346.961627,63.0364471 347.160178,64.9255364 346.117486,66.213154 L341.082923,72.4303217 C340.040231,73.7179393 338.151141,73.9164906 336.863524,72.8737984 C335.575906,71.8311062 335.377355,69.9420169 336.420047,68.6543993 L341.45461,62.4372316 C342.497302,61.1496141 344.386392,60.9510628 345.674009,61.9937549 Z M357.067586,71.801935 C358.279333,72.9319069 358.345624,74.8302447 357.215652,76.0419912 L351.759665,81.8928208 C350.629693,83.1045673 348.731355,83.1708587 347.519609,82.0408868 C346.307862,80.910915 346.241571,79.0125771 347.371543,77.8008307 L352.82753,71.950001 C353.957502,70.7382546 355.85584,70.6719631 357.067586,71.801935 Z M367.698065,82.432414 C368.828037,83.6441605 368.761745,85.5424983 367.549999,86.6724702 L361.699169,92.128457 C360.487423,93.2584289 358.589085,93.1921375 357.459113,91.980391 C356.329141,90.7686445 356.395433,88.8703067 357.607179,87.7403348 L363.458009,82.284348 C364.669755,81.1543761 366.568093,81.2206675 367.698065,82.432414 Z M377.506245,93.8259908 C378.548937,95.1136084 378.350386,97.0026977 377.062768,98.0453899 L370.845601,103.079953 C369.557983,104.122645 367.668894,103.924094 366.626202,102.636476 C365.583509,101.348859 365.782061,99.4597694 367.069678,98.4170772 L373.286846,93.3825141 L373.286846,93.3825141 C374.574464,92.3398219 376.463553,92.5383732 377.506245,93.8259908 Z M386.506705,106.019898 C387.433206,107.393493 387.070765,109.258089 385.697171,110.18459 L379.06487,114.658133 C377.691276,115.584634 375.82668,115.222193 374.900179,113.848599 C373.973677,112.475005 374.336118,110.610409 375.709713,109.683908 L382.342013,105.210364 C383.715608,104.283863 385.580203,104.646304 386.506705,106.019898 Z M394.504119,118.75 C395.332546,120.184878 394.840921,122.019649 393.406043,122.848076 L386.477839,126.848076 C385.042962,127.676503 383.20819,127.184878 382.379763,125.75 C381.551336,124.315122 382.042962,122.480351 383.477839,121.651924 L390.406043,117.651924 C391.840921,116.823497 393.675692,117.315122 394.504119,118.75 Z M401.530003,132.041015 C402.25632,133.530185 401.637905,135.326193 400.148734,136.05251 L392.958382,139.559479 C391.469211,140.285797 389.673204,139.667382 388.946886,138.178211 C388.220569,136.68904 388.838984,134.893032 390.328155,134.166715 L397.518508,130.659746 C399.007678,129.933429 400.803686,130.551844 401.530003,132.041015 Z M407.590007,145.932595 C408.183771,147.479402 407.411176,149.214677 405.86437,149.80844 L398.395726,152.675384 C396.84892,153.269147 395.113645,152.496553 394.519881,150.949746 C393.926118,149.40294 394.698712,147.667665 396.245519,147.073901 L403.714162,144.206958 C405.260969,143.613194 406.996244,144.385788 407.590007,145.932595 Z M412.553044,160.123517 C413.037461,161.707974 412.145702,163.385129 410.561245,163.869546 L402.910807,166.20852 C401.326349,166.692937 399.649195,165.801178 399.164777,164.216721 C398.68036,162.632263 399.572119,160.955108 401.156577,160.470691 L408.807015,158.131717 C410.391472,157.6473 412.068627,158.539059 412.553044,160.123517 Z M416.444069,174.645021 C416.81678,176.25941 415.810202,177.870273 414.195812,178.242984 L406.400852,180.042593 C404.786463,180.415304 403.1756,179.408725 402.802888,177.794336 C402.430177,176.179947 403.436756,174.569083 405.051145,174.196372 L412.846106,172.396764 C414.460495,172.024053 416.071358,173.030632 416.444069,174.645021 Z M419.241414,189.416238 C419.500603,191.052694 418.384108,192.589417 416.747652,192.848606 L408.846146,194.100082 C407.20969,194.359271 405.672966,193.242776 405.413777,191.60632 C405.154588,189.969865 406.271083,188.433141 407.907539,188.173952 L415.809046,186.922476 C417.445501,186.663287 418.982225,187.779782 419.241414,189.416238 Z M420.939087,204.476701 C421.054663,206.12952 419.808482,207.563087 418.155664,207.678663 L410.175152,208.236715 C408.522334,208.352291 407.088767,207.10611 406.97319,205.453292 C406.857614,203.800474 408.103795,202.366907 409.756613,202.251331 L417.737125,201.693279 C419.389944,201.577702 420.823511,202.823883 420.939087,204.476701 Z M421.5,219.5 C421.5,221.156854 420.156854,222.5 418.5,222.5 L410.5,222.5 C408.843146,222.5 407.5,221.156854 407.5,219.5 C407.5,217.843146 408.843146,216.5 410.5,216.5 L418.5,216.5 C420.156854,216.5 421.5,217.843146 421.5,219.5 Z M420.939087,234.523299 C420.823511,236.176117 419.389944,237.422298 417.737125,237.306721 L409.756613,236.748669 C408.103795,236.633093 406.857614,235.199526 406.97319,233.546708 C407.088767,231.89389 408.522334,230.647709 410.175152,230.763285 L418.155664,231.321337 C419.808482,231.436913 421.054663,232.87048 420.939087,234.523299 Z M419.241414,249.583762 C418.982225,251.220218 417.445501,252.336713 415.809046,252.077524 L407.907539,250.826048 C406.271083,250.566859 405.154588,249.030135 405.413777,247.39368 C405.672966,245.757224 407.20969,244.640729 408.846146,244.899918 L416.747652,246.151394 C418.384108,246.410583 419.500603,247.947306 419.241414,249.583762 Z M416.444069,264.354979 C416.071358,265.969368 414.460495,266.975947 412.846106,266.603236 L405.051145,264.803628 C403.436756,264.430917 402.430177,262.820053 402.802888,261.205664 C403.1756,259.591275 404.786463,258.584696 406.400852,258.957407 L414.195812,260.757016 C415.810202,261.129727 416.81678,262.74059 416.444069,264.354979 Z M412.553044,278.876483 C412.068627,280.460941 410.391472,281.3527 408.807015,280.868283 L401.156577,278.529309 C399.572119,278.044892 398.68036,276.367737 399.164777,274.783279 C399.649195,273.198822 401.326349,272.307063 402.910807,272.79148 L410.561245,275.130454 C412.145702,275.614871 413.037461,277.292026 412.553044,278.876483 Z M407.590007,293.067405 C406.996244,294.614212 405.260969,295.386806 403.714162,294.793042 L396.245519,291.926099 C394.698712,291.332335 393.926118,289.59706 394.519881,288.050254 C395.113645,286.503447 396.84892,285.730853 398.395726,286.324616 L405.86437,289.19156 C407.411176,289.785323 408.183771,291.520598 407.590007,293.067405 Z M401.530003,306.958985 C400.803686,308.448156 399.007678,309.066571 397.518508,308.340254 L390.328155,304.833285 C388.838984,304.106968 388.220569,302.31096 388.946886,300.821789 C389.673204,299.332618 391.469211,298.714203 392.958382,299.440521 L400.148734,302.94749 C401.637905,303.673807 402.25632,305.469815 401.530003,306.958985 Z M394.504119,320.25 C393.675692,321.684878 391.840921,322.176503 390.406043,321.348076 L383.477839,317.348076 C382.042962,316.519649 381.551336,314.684878 382.379763,313.25 C383.20819,311.815122 385.042962,311.323497 386.477839,312.151924 L393.406043,316.151924 C394.840921,316.980351 395.332546,318.815122 394.504119,320.25 Z M386.506705,332.980102 C385.580203,334.353696 383.715608,334.716137 382.342013,333.789636 L375.709713,329.316092 C374.336118,328.389591 373.973677,326.524995 374.900179,325.151401 C375.82668,323.777807 377.691276,323.415366 379.06487,324.341867 L385.697171,328.81541 C387.070765,329.741911 387.433206,331.606507 386.506705,332.980102 Z M377.506245,345.174009 C376.463553,346.461627 374.574464,346.660178 373.286846,345.617486 L367.069678,340.582923 C365.782061,339.540231 365.583509,337.651141 366.626202,336.363524 C367.668894,335.075906 369.557983,334.877355 370.845601,335.920047 L377.062768,340.95461 C378.350386,341.997302 378.548937,343.886392 377.506245,345.174009 Z M367.698065,356.567586 C366.568093,357.779333 364.669755,357.845624 363.458009,356.715652 L357.607179,351.259665 C356.395433,350.129693 356.329141,348.231355 357.459113,347.019609 C358.589085,345.807862 360.487423,345.741571 361.699169,346.871543 L367.549999,352.32753 C368.761745,353.457502 368.828037,355.35584 367.698065,356.567586 Z M357.067586,367.198065 C355.85584,368.328037 353.957502,368.261745 352.82753,367.049999 L347.371543,361.199169 C346.241571,359.987423 346.307862,358.089085 347.519609,356.959113 C348.731355,355.829141 350.629693,355.895433 351.759665,357.107179 L357.215652,362.958009 C358.345624,364.169755 358.279333,366.068093 357.067586,367.198065 Z M345.674009,377.006245 C344.386392,378.048937 342.497302,377.850386 341.45461,376.562768 L336.420047,370.345601 C335.377355,369.057983 335.575906,367.168894 336.863524,366.126202 C338.151141,365.083509 340.040231,365.282061 341.082923,366.569678 L346.117486,372.786846 C347.160178,374.074464 346.961627,375.963553 345.674009,377.006245 Z M333.480102,386.006705 C332.106507,386.933206 330.241911,386.570765 329.31541,385.197171 L324.841867,378.56487 C323.915366,377.191276 324.277807,375.32668 325.651401,374.400179 C327.024995,373.473677 328.889591,373.836118 329.816092,375.209713 L334.289636,381.842013 C335.216137,383.215608 334.853696,385.080203 333.480102,386.006705 Z M320.75,394.004119 C319.315122,394.832546 317.480351,394.340921 316.651924,392.906043 L312.651924,385.977839 C311.823497,384.542962 312.315122,382.70819 313.75,381.879763 C315.184878,381.051336 317.019649,381.542962 317.848076,382.977839 L321.848076,389.906043 C322.676503,391.340921 322.184878,393.175692 320.75,394.004119 Z M307.458985,401.030003 C305.969815,401.75632 304.173807,401.137905 303.44749,399.648734 L299.940521,392.458382 C299.214203,390.969211 299.832618,389.173204 301.321789,388.446886 C302.81096,387.720569 304.606968,388.338984 305.333285,389.828155 L308.840254,397.018508 C309.566571,398.507678 308.948156,400.303686 307.458985,401.030003 Z M293.567405,407.090007 C292.020598,407.683771 290.285323,406.911176 289.69156,405.36437 L286.824616,397.895726 C286.230853,396.34892 287.003447,394.613645 288.550254,394.019881 C290.09706,393.426118 291.832335,394.198712 292.426099,395.745519 L295.293042,403.214162 C295.886806,404.760969 295.114212,406.496244 293.567405,407.090007 Z M279.376483,412.053044 C277.792026,412.537461 276.114871,411.645702 275.630454,410.061245 L273.29148,402.410807 C272.807063,400.826349 273.698822,399.149195 275.283279,398.664777 C276.867737,398.18036 278.544892,399.072119 279.029309,400.656577 L281.368283,408.307015 C281.8527,409.891472 280.960941,411.568627 279.376483,412.053044 Z M264.854979,415.944069 C263.24059,416.31678 261.629727,415.310202 261.257016,413.695812 L259.457407,405.900852 C259.084696,404.286463 260.091275,402.6756 261.705664,402.302888 C263.320053,401.930177 264.930917,402.936756 265.303628,404.551145 L267.103236,412.346106 C267.475947,413.960495 266.469368,415.571358 264.854979,415.944069 Z M250.083762,418.741414 C248.447306,419.000603 246.910583,417.884108 246.651394,416.247652 L245.399918,408.346146 C245.140729,406.70969 246.257224,405.172966 247.89368,404.913777 C249.530135,404.654588 251.066859,405.771083 251.326048,407.407539 L252.577524,415.309046 C252.836713,416.945501 251.720218,418.482225 250.083762,418.741414 Z M235.023299,420.439087 C233.37048,420.554663 231.936913,419.308482 231.821337,417.655664 L231.263285,409.675152 C231.147709,408.022334 232.39389,406.588767 234.046708,406.47319 C235.699526,406.357614 237.133093,407.603795 237.248669,409.256613 L237.806721,417.237125 C237.922298,418.889944 236.676117,420.323511 235.023299,420.439087 Z M220,421 C218.343146,421 217,419.656854 217,418 L217,410 C217,408.343146 218.343146,407 220,407 C221.656854,407 223,408.343146 223,410 L223,418 C223,419.656854 221.656854,421 220,421 Z M204.976701,420.439087 C203.323883,420.323511 202.077702,418.889944 202.193279,417.237125 L202.751331,409.256613 C202.866907,407.603795 204.300474,406.357614 205.953292,406.47319 C207.60611,406.588767 208.852291,408.022334 208.736715,409.675152 L208.178663,417.655664 C208.063087,419.308482 206.62952,420.554663 204.976701,420.439087 Z M189.916238,418.741414 C188.279782,418.482225 187.163287,416.945501 187.422476,415.309046 L188.673952,407.407539 C188.933141,405.771083 190.469865,404.654588 192.10632,404.913777 C193.742776,405.172966 194.859271,406.70969 194.600082,408.346146 L193.348606,416.247652 C193.089417,417.884108 191.552694,419.000603 189.916238,418.741414 Z M175.145021,415.944069 C173.530632,415.571358 172.524053,413.960495 172.896764,412.346106 L174.696372,404.551145 C175.069083,402.936756 176.679947,401.930177 178.294336,402.302888 C179.908725,402.6756 180.915304,404.286463 180.542593,405.900852 L178.742984,413.695812 C178.370273,415.310202 176.75941,416.31678 175.145021,415.944069 Z M160.623517,412.053044 C159.039059,411.568627 158.1473,409.891472 158.631717,408.307015 L160.970691,400.656577 C161.455108,399.072119 163.132263,398.18036 164.716721,398.664777 C166.301178,399.149195 167.192937,400.826349 166.70852,402.410807 L164.369546,410.061245 C163.885129,411.645702 162.207974,412.537461 160.623517,412.053044 Z M146.432595,407.090007 C144.885788,406.496244 144.113194,404.760969 144.706958,403.214162 L147.573901,395.745519 C148.167665,394.198712 149.90294,393.426118 151.449746,394.019881 C152.996553,394.613645 153.769147,396.34892 153.175384,397.895726 L150.30844,405.36437 C149.714677,406.911176 147.979402,407.683771 146.432595,407.090007 Z M132.541015,401.030003 C131.051844,400.303686 130.433429,398.507678 131.159746,397.018508 L134.666715,389.828155 C135.393032,388.338984 137.18904,387.720569 138.678211,388.446886 C140.167382,389.173204 140.785797,390.969211 140.059479,392.458382 L136.55251,399.648734 C135.826193,401.137905 134.030185,401.75632 132.541015,401.030003 Z M119.25,394.004119 C117.815122,393.175692 117.323497,391.340921 118.151924,389.906043 L122.151924,382.977839 C122.980351,381.542962 124.815122,381.051336 126.25,381.879763 C127.684878,382.70819 128.176503,384.542962 127.348076,385.977839 L123.348076,392.906043 C122.519649,394.340921 120.684878,394.832546 119.25,394.004119 Z M106.519898,386.006705 C105.146304,385.080203 104.783863,383.215608 105.710364,381.842013 L110.183908,375.209713 C111.110409,373.836118 112.975005,373.473677 114.348599,374.400179 C115.722193,375.32668 116.084634,377.191276 115.158133,378.56487 L110.68459,385.197171 C109.758089,386.570765 107.893493,386.933206 106.519898,386.006705 Z M94.3259908,377.006245 C93.0383732,375.963553 92.8398219,374.074464 93.8825141,372.786846 L98.9170772,366.569678 C99.9597694,365.282061 101.848859,365.083509 103.136476,366.126202 C104.424094,367.168894 104.622645,369.057983 103.579953,370.345601 L98.5453899,376.562768 L98.5453899,376.562768 C97.5026977,377.850386 95.6136084,378.048937 94.3259908,377.006245 Z M82.932414,367.198065 C81.7206675,366.068093 81.6543761,364.169755 82.784348,362.958009 L88.2403348,357.107179 C89.3703067,355.895433 91.2686445,355.829141 92.480391,356.959113 C93.6921375,358.089085 93.7584289,359.987423 92.628457,361.199169 L87.1724702,367.049999 C86.0424983,368.261745 84.1441605,368.328037 82.932414,367.198065 Z M72.301935,356.567586 C71.1719631,355.35584 71.2382546,353.457502 72.450001,352.32753 L78.3008307,346.871543 C79.5125771,345.741571 81.410915,345.807862 82.5408868,347.019609 C83.6708587,348.231355 83.6045673,350.129693 82.3928208,351.259665 L76.5419912,356.715652 C75.3302447,357.845624 73.4319069,357.779333 72.301935,356.567586 Z M62.4937549,345.174009 C61.4510628,343.886392 61.6496141,341.997302 62.9372316,340.95461 L69.1543993,335.920047 C70.4420169,334.877355 72.3311062,335.075906 73.3737984,336.363524 C74.4164906,337.651141 74.2179393,339.540231 72.9303217,340.582923 L66.713154,345.617486 C65.4255364,346.660178 63.5364471,346.461627 62.4937549,345.174009 Z M53.4932954,332.980102 C52.5667942,331.606507 52.929235,329.741911 54.3028294,328.81541 L60.93513,324.341867 C62.3087244,323.415366 64.1733203,323.777807 65.0998214,325.151401 C66.0263225,326.524995 65.6638818,328.389591 64.2902874,329.316092 L57.6579868,333.789636 C56.2843924,334.716137 54.4197965,334.353696 53.4932954,332.980102 Z M45.4958811,320.25 C44.667454,318.815122 45.1590795,316.980351 46.5939573,316.151924 L53.5221606,312.151924 C54.9570384,311.323497 56.7918097,311.815122 57.6202368,313.25 C58.4486639,314.684878 57.9570384,316.519649 56.5221606,317.348076 L49.5939573,321.348076 C48.1590795,322.176503 46.3243083,321.684878 45.4958811,320.25 Z M38.4699969,306.958985 C37.7436798,305.469815 38.3620948,303.673807 39.8512656,302.94749 L47.0416179,299.440521 C48.5307887,298.714203 50.3267964,299.332618 51.0531135,300.821789 C51.7794306,302.31096 51.1610156,304.106968 49.6718448,304.833285 L42.4814924,308.340254 C40.9923217,309.066571 39.196314,308.448156 38.4699969,306.958985 Z M32.4099929,293.067405 C31.8162294,291.520598 32.5888236,289.785323 34.1356303,289.19156 L41.6042737,286.324616 C43.1510804,285.730853 44.8863554,286.503447 45.4801189,288.050254 C46.0738823,289.59706 45.3012881,291.332335 43.7544814,291.926099 L36.285838,294.793042 L36.285838,294.793042 C34.7390313,295.386806 33.0037564,294.614212 32.4099929,293.067405 Z M27.446956,278.876483 C26.9625387,277.292026 27.8542975,275.614871 29.4387551,275.130454 L37.0891932,272.79148 C38.6736508,272.307063 40.3508053,273.198822 40.8352226,274.783279 C41.3196399,276.367737 40.427881,278.044892 38.8434234,278.529309 L31.1929854,280.868283 C29.6085278,281.3527 27.9313733,280.460941 27.446956,278.876483 Z M23.5559306,264.354979 C23.1832195,262.74059 24.1897985,261.129727 25.8041877,260.757016 L33.5991482,258.957407 C35.2135374,258.584696 36.8244004,259.591275 37.1971115,261.205664 C37.5698226,262.820053 36.5632437,264.430917 34.9488545,264.803628 L27.153894,266.603236 L27.153894,266.603236 C25.5395048,266.975947 23.9286417,265.969368 23.5559306,264.354979 Z M20.7585859,249.583762 C20.4993968,247.947306 21.6158919,246.410583 23.2523475,246.151394 L31.1538543,244.899918 C32.7903099,244.640729 34.3270336,245.757224 34.5862227,247.39368 C34.8454118,249.030135 33.7289167,250.566859 32.0924611,250.826048 L24.1909543,252.077524 C22.5544987,252.336713 21.017775,251.220218 20.7585859,249.583762 Z M19.0609131,234.523299 C18.9453368,232.87048 20.1915176,231.436913 21.8443358,231.321337 L29.8248482,230.763285 C31.4776665,230.647709 32.9112335,231.89389 33.0268098,233.546708 C33.1423861,235.199526 31.8962053,236.633093 30.2433871,236.748669 L22.2628747,237.306721 L22.2628747,237.306721 C20.6100564,237.422298 19.1764894,236.176117 19.0609131,234.523299 Z M18.5,219.5 C18.5,217.843146 19.8431458,216.5 21.5,216.5 L29.5,216.5 C31.1568542,216.5 32.5,217.843146 32.5,219.5 C32.5,221.156854 31.1568542,222.5 29.5,222.5 L21.5,222.5 L21.5,222.5 C19.8431458,222.5 18.5,221.156854 18.5,219.5 Z M19.0609131,204.476701 L19.0609131,204.476701 C19.1764894,202.823883 20.6100564,201.577702 22.2628747,201.693279 L30.2433871,202.251331 C31.8962053,202.366907 33.1423861,203.800474 33.0268098,205.453292 C32.9112335,207.10611 31.4776665,208.352291 29.8248482,208.236715 L21.8443358,207.678663 L21.8443358,207.678663 C20.1915176,207.563087 18.9453368,206.12952 19.0609131,204.476701 L19.0609131,204.476701 Z M20.7585859,189.416238 L20.7585859,189.416238 C21.017775,187.779782 22.5544987,186.663287 24.1909543,186.922476 L32.0924611,188.173952 C33.7289167,188.433141 34.8454118,189.969865 34.5862227,191.60632 C34.3270336,193.242776 32.7903099,194.359271 31.1538543,194.100082 L23.2523475,192.848606 L23.2523475,192.848606 C21.6158919,192.589417 20.4993968,191.052694 20.7585859,189.416238 L20.7585859,189.416238 Z M23.5559306,174.645021 L23.5559306,174.645021 C23.9286417,173.030632 25.5395048,172.024053 27.153894,172.396764 L34.9488545,174.196372 C36.5632437,174.569083 37.5698226,176.179947 37.1971115,177.794336 C36.8244004,179.408725 35.2135374,180.415304 33.5991482,180.042593 L25.8041877,178.242984 C24.1897985,177.870273 23.1832195,176.25941 23.5559306,174.645021 L23.5559306,174.645021 Z M27.446956,160.123517 C27.9313733,158.539059 29.6085278,157.6473 31.1929854,158.131717 L38.8434234,160.470691 C40.427881,160.955108 41.3196399,162.632263 40.8352226,164.216721 C40.3508053,165.801178 38.6736508,166.692937 37.0891932,166.20852 L29.4387551,163.869546 C27.8542975,163.385129 26.9625387,161.707974 27.446956,160.123517 Z M32.4099929,145.932595 C33.0037564,144.385788 34.7390313,143.613194 36.285838,144.206958 L43.7544814,147.073901 C45.3012881,147.667665 46.0738823,149.40294 45.4801189,150.949746 C44.8863554,152.496553 43.1510804,153.269147 41.6042737,152.675384 L34.1356303,149.80844 C32.5888236,149.214677 31.8162294,147.479402 32.4099929,145.932595 Z M38.4699969,132.041015 C39.196314,130.551844 40.9923217,129.933429 42.4814924,130.659746 L49.6718448,134.166715 C51.1610156,134.893032 51.7794306,136.68904 51.0531135,138.178211 C50.3267964,139.667382 48.5307887,140.285797 47.0416179,139.559479 L39.8512656,136.05251 C38.3620948,135.326193 37.7436798,133.530185 38.4699969,132.041015 Z M45.4958811,118.75 C46.3243083,117.315122 48.1590795,116.823497 49.5939573,117.651924 L56.5221606,121.651924 C57.9570384,122.480351 58.4486639,124.315122 57.6202368,125.75 C56.7918097,127.184878 54.9570384,127.676503 53.5221606,126.848076 L46.5939573,122.848076 C45.1590795,122.019649 44.667454,120.184878 45.4958811,118.75 Z M53.4932954,106.019898 C54.4197965,104.646304 56.2843924,104.283863 57.6579868,105.210364 L64.2902874,109.683908 C65.6638818,110.610409 66.0263225,112.475005 65.0998214,113.848599 C64.1733203,115.222193 62.3087244,115.584634 60.93513,114.658133 L54.3028294,110.18459 C52.929235,109.258089 52.5667942,107.393493 53.4932954,106.019898 Z M62.4937549,93.8259908 C63.5364471,92.5383732 65.4255364,92.3398219 66.713154,93.3825141 L72.9303217,98.4170772 C74.2179393,99.4597694 74.4164906,101.348859 73.3737984,102.636476 C72.3311062,103.924094 70.4420169,104.122645 69.1543993,103.079953 L62.9372316,98.0453899 C61.6496141,97.0026977 61.4510628,95.1136084 62.4937549,93.8259908 Z M72.301935,82.432414 C73.4319069,81.2206675 75.3302447,81.1543761 76.5419912,82.284348 L82.3928208,87.7403348 C83.6045673,88.8703067 83.6708587,90.7686445 82.5408868,91.980391 C81.410915,93.1921375 79.5125771,93.2584289 78.3008307,92.128457 L72.450001,86.6724702 C71.2382546,85.5424983 71.1719631,83.6441605 72.301935,82.432414 Z M82.932414,71.801935 C84.1441605,70.6719631 86.0424983,70.7382546 87.1724702,71.950001 L92.628457,77.8008307 C93.7584289,79.0125771 93.6921375,80.910915 92.480391,82.0408868 C91.2686445,83.1708587 89.3703067,83.1045673 88.2403348,81.8928208 L82.784348,76.0419912 C81.6543761,74.8302447 81.7206675,72.9319069 82.932414,71.801935 Z M94.3259908,61.9937549 C95.6136084,60.9510628 97.5026977,61.1496141 98.5453899,62.4372316 L103.579953,68.6543993 C104.622645,69.9420169 104.424094,71.8311062 103.136476,72.8737984 C101.848859,73.9164906 99.9597694,73.7179393 98.9170772,72.4303217 L93.8825141,66.213154 C92.8398219,64.9255364 93.0383732,63.0364471 94.3259908,61.9937549 Z M106.519898,52.9932954 C107.893493,52.0667942 109.758089,52.429235 110.68459,53.8028294 L115.158133,60.43513 C116.084634,61.8087244 115.722193,63.6733203 114.348599,64.5998214 C112.975005,65.5263225 111.110409,65.1638818 110.183908,63.7902874 L105.710364,57.1579868 C104.783863,55.7843924 105.146304,53.9197965 106.519898,52.9932954 Z M119.25,44.9958811 C120.684878,44.167454 122.519649,44.6590795 123.348076,46.0939573 L127.348076,53.0221606 C128.176503,54.4570384 127.684878,56.2918097 126.25,57.1202368 C124.815122,57.9486639 122.980351,57.4570384 122.151924,56.0221606 L118.151924,49.0939573 C117.323497,47.6590795 117.815122,45.8243083 119.25,44.9958811 Z M132.541015,37.9699969 C134.030185,37.2436798 135.826193,37.8620948 136.55251,39.3512656 L140.059479,46.5416179 C140.785797,48.0307887 140.167382,49.8267964 138.678211,50.5531135 C137.18904,51.2794306 135.393032,50.6610156 134.666715,49.1718448 L131.159746,41.9814924 C130.433429,40.4923217 131.051844,38.696314 132.541015,37.9699969 Z M146.432595,31.9099929 L146.432595,31.9099929 C147.979402,31.3162294 149.714677,32.0888236 150.30844,33.6356303 L153.175384,41.1042737 C153.769147,42.6510804 152.996553,44.3863554 151.449746,44.9801189 C149.90294,45.5738823 148.167665,44.8012881 147.573901,43.2544814 L144.706958,35.785838 C144.113194,34.2390313 144.885788,32.5037564 146.432595,31.9099929 L146.432595,31.9099929 Z M160.623517,26.946956 C162.207974,26.4625387 163.885129,27.3542975 164.369546,28.9387551 L166.70852,36.5891932 C167.192937,38.1736508 166.301178,39.8508053 164.716721,40.3352226 C163.132263,40.8196399 161.455108,39.927881 160.970691,38.3434234 L158.631717,30.6929854 C158.1473,29.1085278 159.039059,27.4313733 160.623517,26.946956 Z M175.145021,23.0559306 C176.75941,22.6832195 178.370273,23.6897985 178.742984,25.3041877 L180.542593,33.0991482 C180.915304,34.7135374 179.908725,36.3244004 178.294336,36.6971115 C176.679947,37.0698226 175.069083,36.0632437 174.696372,34.4488545 L172.896764,26.653894 L172.896764,26.653894 C172.524053,25.0395048 173.530632,23.4286417 175.145021,23.0559306 Z M189.916238,20.2585859 C191.552694,19.9993968 193.089417,21.1158919 193.348606,22.7523475 L194.600082,30.6538543 C194.859271,32.2903099 193.742776,33.8270336 192.10632,34.0862227 C190.469865,34.3454118 188.933141,33.2289167 188.673952,31.5924611 L187.422476,23.6909543 C187.163287,22.0544987 188.279782,20.517775 189.916238,20.2585859 Z M204.976701,18.5609131 C206.62952,18.4453368 208.063087,19.6915176 208.178663,21.3443358 L208.736715,29.3248482 C208.852291,30.9776665 207.60611,32.4112335 205.953292,32.5268098 C204.300474,32.6423861 202.866907,31.3962053 202.751331,29.7433871 L202.193279,21.7628747 L202.193279,21.7628747 C202.077702,20.1100564 203.323883,18.6764894 204.976701,18.5609131 Z" id="Speaker-Holes" fill="#000000"></path>
            </g>
            <g id="Buttons" transform="translate(62.000000, 63.000000)">
                <g id="Volume-Down" transform="translate(120.000000, 239.000000)">
                    <circle id="Button-Base" stroke="#000000" fill="#222222" cx="38" cy="38" r="38"></circle>
                    <g id="Icon" transform="translate(25.000000, 35.000000)" fill="#FFFFFF">
                        <rect id="Minus" transform="translate(12.500000, 2.000000) rotate(90.000000) translate(-12.500000, -2.000000) " x="10.5" y="-10.5" width="4" height="25" rx="2"></rect>
                    </g>
                </g>
                <g id="Action" transform="translate(240.000000, 119.000000)">
                    <circle id="Button-Base" stroke="#000000" fill="#222222" cx="38" cy="38" r="38"></circle>
                    <g id="Icon" transform="translate(32.000000, 32.000000)" fill="#FFFFFF">
                        <circle id="Dot" cx="6" cy="6" r="6"></circle>
                    </g>
                </g>
                <g id="Volume-Up" transform="translate(120.000000, 0.000000)">
                    <circle id="Button-Base" stroke="#000000" fill="#222222" cx="38" cy="38" r="38"></circle>
                    <g id="Icon" transform="translate(25.000000, 25.000000)" fill="#FFFFFF">
                        <path d="M15,10 L15,2 C15,0.8954305 14.1045695,-2.02906125e-16 13,0 C11.8954305,2.02906125e-16 11,0.8954305 11,2 L11,2 L11,10 L2,10 C0.8954305,10 0,10.8954305 0,12 C0,13.1045695 0.8954305,14 2,14 L11,14 L11,23 C11,24.1045695 11.8954305,25 13,25 C14.1045695,25 15,24.1045695 15,23 L15,14 L23,14 C24.1045695,14 25,13.1045695 25,12 C25,10.8954305 24.1045695,10 23,10 L15,10 Z" id="Plus"></path>
                    </g>
                </g>
                <g id="Microphone" transform="translate(0.000000, 119.000000)">
                    <circle id="Button-Base" stroke="#000000" fill="#222222" cx="38" cy="38" r="38"></circle>
                    <g id="Icon" transform="translate(21.000000, 17.000000)" fill="#FFFFFF">
                        <path d="M11.1683931,22.4173933 L7.70334168,25.8824448 C6.79268205,24.4462409 6.20565917,22.7845693 6.04484302,21 L4.03788963,21 C4.21555316,23.3354858 5.01032447,25.498477 6.25950824,27.3262782 L0.443650814,33.1421356 L0.443650814,33.1421356 C0.0531265221,33.5326599 0.0531265221,34.1658249 0.443650814,34.5563492 L0.443650814,34.5563492 L0.443650814,34.5563492 C0.834175106,34.9468735 1.46734008,34.9468735 1.85786438,34.5563492 L7.51935693,28.8948566 C9.45953311,30.961988 12.0680553,32.3943782 15,32.8471036 L15,38 L19,38 L19,32.8471036 C24.9076541,31.934895 29.5022351,27.0453162 29.9621104,21 L27.955157,21 C27.4499282,26.6065 22.7380426,31 17,31 C13.8134256,31 10.9433224,29.6450251 8.93441441,27.4797992 L12.0387951,24.3754185 C13.1188127,25.9597612 14.937926,27 17,27 L17,27 C20.3137085,27 23,24.3137085 23,21 L23,13.4142136 L31.5563492,4.85786438 C31.9468735,4.46734008 31.9468735,3.83417511 31.5563492,3.44365081 C31.1658249,3.05312652 30.5326599,3.05312652 30.1421356,3.44365081 L23,10.5857864 L23,6 C23,2.6862915 20.3137085,-6.08718376e-16 17,0 C13.6862915,6.08718376e-16 11,2.6862915 11,6 L11,6 L11,21 C11,21.4882831 11.0583268,21.9629433 11.1683931,22.4173933 Z M9,38 L25,38 L25,42 L9,42 L9,38 Z" id="Microphone"></path>
                    </g>
                </g>
            </g>
        </g>
    </g>
</svg>